<svg id="visual" viewBox="0 0 1300 1000" width="1300" height="1000" xmlns="http://www.w3.org/2000/svg" xmlns:xlink="http://www.w3.org/1999/xlink" version="1.1"><rect x="0" y="0" width="1300" height="1000" fill="#4169E1"></rect><path d="M0 700L31 696.8C62 693.7 124 687.3 185.8 690.5C247.7 693.7 309.3 706.3 371.2 691C433 675.7 495 632.3 557 614.2C619 596 681 603 743 621C805 639 867 668 928.8 678.7C990.7 689.3 1052.3 681.7 1114.2 679.7C1176 677.7 1238 681.3 1269 683.2L1300 685L1300 1001L1269 1001C1238 1001 1176 1001 1114.2 1001C1052.3 1001 990.7 1001 928.8 1001C867 1001 805 1001 743 1001C681 1001 619 1001 557 1001C495 1001 433 1001 371.2 1001C309.3 1001 247.7 1001 185.8 1001C124 1001 62 1001 31 1001L0 1001Z" fill="#ffc0cb"></path><path d="M0 704L31 713.3C62 722.7 124 741.3 185.8 741.7C247.7 742 309.3 724 371.2 716.7C433 709.3 495 712.7 557 711C619 709.3 681 702.7 743 694.7C805 686.7 867 677.3 928.8 684.5C990.7 691.7 1052.3 715.3 1114.2 719.8C1176 724.3 1238 709.7 1269 702.3L1300 695L1300 1001L1269 1001C1238 1001 1176 1001 1114.2 1001C1052.3 1001 990.7 1001 928.8 1001C867 1001 805 1001 743 1001C681 1001 619 1001 557 1001C495 1001 433 1001 371.2 1001C309.3 1001 247.7 1001 185.8 1001C124 1001 62 1001 31 1001L0 1001Z" fill="#f39db0"></path><path d="M0 729L31 744.8C62 760.7 124 792.3 185.8 811.5C247.7 830.7 309.3 837.3 371.2 827.3C433 817.3 495 790.7 557 785.8C619 781 681 798 743 801.5C805 805 867 795 928.8 794C990.7 793 1052.3 801 1114.2 795.8C1176 790.7 1238 772.3 1269 763.2L1300 754L1300 1001L1269 1001C1238 1001 1176 1001 1114.2 1001C1052.3 1001 990.7 1001 928.8 1001C867 1001 805 1001 743 1001C681 1001 619 1001 557 1001C495 1001 433 1001 371.2 1001C309.3 1001 247.7 1001 185.8 1001C124 1001 62 1001 31 1001L0 1001Z" fill="#e67a96"></path><path d="M0 832L31 830C62 828 124 824 185.8 828.3C247.7 832.7 309.3 845.3 371.2 859.3C433 873.3 495 888.7 557 883.5C619 878.3 681 852.7 743 847.2C805 841.7 867 856.3 928.8 865.8C990.7 875.3 1052.3 879.7 1114.2 870.2C1176 860.7 1238 837.3 1269 825.7L1300 814L1300 1001L1269 1001C1238 1001 1176 1001 1114.2 1001C1052.3 1001 990.7 1001 928.8 1001C867 1001 805 1001 743 1001C681 1001 619 1001 557 1001C495 1001 433 1001 371.2 1001C309.3 1001 247.7 1001 185.8 1001C124 1001 62 1001 31 1001L0 1001Z" fill="#d7547e"></path><path d="M0 915L31 921.8C62 928.7 124 942.3 185.8 936C247.7 929.7 309.3 903.3 371.2 892.5C433 881.7 495 886.3 557 892C619 897.7 681 904.3 743 911C805 917.7 867 924.3 928.8 930.8C990.7 937.3 1052.3 943.7 1114.2 940C1176 936.3 1238 922.7 1269 915.8L1300 909L1300 1001L1269 1001C1238 1001 1176 1001 1114.2 1001C1052.3 1001 990.7 1001 928.8 1001C867 1001 805 1001 743 1001C681 1001 619 1001 557 1001C495 1001 433 1001 371.2 1001C309.3 1001 247.7 1001 185.8 1001C124 1001 62 1001 31 1001L0 1001Z" fill="#c62368"></path></svg>